# xmcd CD database file
#
# Track frame offsets:
#	183
#	11420
#	26058
#	39383
#	52008
#	65825
#	80750
#	93108
#	107358
#	135213
#	148850
#
# Disc length: 2136 seconds
#
# Revision: 2
# Processed by: cddbd v1.4PL0 Copyright (c) Steve Scherf et al.
# Submitted via: CDex 1.40Release
#
DISCID=8c08560b
DTITLE=Bambis - Mandy and die Original Bambis - Fritz
DYEAR=1900
DGENRE=Satire
TTITLE0=Bambis - Sommertraum
TTITLE1=Bambis - Marlen
TTITLE2=Bambis - Bei einer kleinen Tasse Tee
TTITLE3=Bambis - Angeli
TTITLE4=Bambis - Liebe zu versteh`n
TTITLE5=Bambis - Aber es gibt immer einen Weg
TTITLE6=Bambis - Es wird in hundert Jahren wieder so sein
TTITLE7=Bambis - Maria
TTITLE8=Bambis - Seid ihr alle da
TTITLE9=Bambis - Diesmal mu  es Liebe sein
TTITLE10=Bambis - Der Ring
EXTD=ID3G: 110
EXTT0=
EXTT1=
EXTT2=
EXTT3=
EXTT4=
EXTT5=
EXTT6=
EXTT7=
EXTT8=
EXTT9=
EXTT10=
PLAYORDER=
